<svg version="1.1" xmlns="http://www.w3.org/2000/svg"><defs><linearGradient id="green" x1="0%" y1="0%" x2="0%" y2="100%"><stop offset="0%" style="stop-color: rgba(112, 168, 0, 0.2);"></stop><stop offset="80%" style="stop-color: rgba(240, 185, 11, 0.2);"></stop><stop offset="100%" style="stop-color: rgba(255, 255, 255, 0.2);"></stop></linearGradient></defs><defs><linearGradient id="red" x1="0%" y1="0%" x2="0%" y2="100%"><stop offset="0%" style="stop-color: rgba(234, 0, 112, 0.2);"></stop><stop offset="80%" style="stop-color: rgba(240, 185, 11, 0.2);"></stop><stop offset="100%" style="stop-color: rgba(255, 255, 255, 0.2);"></stop></linearGradient></defs><defs><linearGradient id="linear" x1="0%" y1="0%" x2="0%" y2="100%"><stop offset="0%" style="stop-color: rgba(240, 185, 10, .65);" /><stop offset="80%" style="stop-color: rgba(240, 185, 10, .05);" /><stop offset="100%" style="stop-color: rgba(255, 255, 255, 0);" /></linearGradient></defs><g transform="translate(0.5,0.5)"><path d="M0 10 L4 24 L9 24 L13 27 L17 18 L22 26 L26 29 L30 24 L35 27 L39 21 L43 18 L48 12 L52 19 L57 16 L61 7 L65 5 L70 1 L74 8 L78 10 L83 8 L87 8 L91 12 L96 11 L100 13" stroke="rgba(240, 185, 10, 1)" fill="none" stroke-width="1"></path><path d="M0 28 L0 10 L4 24 L9 24 L13 27 L17 18 L22 26 L26 29 L30 24 L35 27 L39 21 L43 18 L48 12 L52 19 L57 16 L61 7 L65 5 L70 1 L74 8 L78 10 L83 8 L87 8 L91 12 L96 11 L100 13 L100 28" fill="url(#linear)" stroke="none"></path></g></svg>